<svg xmlns="http://www.w3.org/2000/svg" width="500" height="500" style="width:100%;height:100%;transform:translate3d(0,0,0);content-visibility:visible" viewBox="0 0 500 500"><defs><clipPath id="c"><path d="M0 0h500v500H0z"/></clipPath><filter id="a" width="100%" height="100%" x="0%" y="0%" filterUnits="objectBoundingBox"><feComponentTransfer in="SourceGraphic"><feFuncA tableValues="1.0 0.0" type="table"/></feComponentTransfer></filter><mask id="d" mask-type="alpha"><g filter="url(#a)"><path fill="#fff" d="M0 0h500v500H0z" opacity="0"/><use xmlns:ns1="http://www.w3.org/1999/xlink" ns1:href="#b"/></g></mask><g id="b" style="display:block"><path fill="red" d="m189.313 310.24-93.06.022-.021-163.773h93.232l-.151 163.75z"/><path fill-opacity="0" stroke="red" stroke-linecap="round" stroke-linejoin="round" stroke-width="7.4" d="m189.313 310.24-93.06.022-.021-163.773h93.232l-.151 163.75z"/></g></defs><g clip-path="url(#c)"><g mask="url(#d)" style="display:block"><path fill="#F8C8C0" d="M189.457 153.374s13.956-.214 23.717-.214c27.232 0 41.418-21.56 61.842-21.56h110.352c8.932 0 16.17 7.285 16.17 16.276s-7.238 16.28-16.17 16.28h-4.397 15.461c11.906 0 21.56 9.713 21.56 21.7 0 11.989-9.654 21.705-21.56 21.705h-2.554 13.05c13.006 0 23.543 10.612 23.543 23.702 0 13.09-10.537 23.702-23.543 23.702h-1.561 1.842c12.847 0 23.262 10.486 23.262 23.418 0 12.931-10.415 23.417-23.262 23.417h-62.885c-8.168 0-14.8 6.632-14.8 14.8v62.778c0 17.949-14.548 32.497-32.497 32.497-7.119 0-12.89-5.772-12.89-12.89v-34.063c0-42.49-47.657-73.449-68.65-74.015l-13.295-.131-13.294-.132"/><path fill="#F8C8C0" fill-opacity=".5" d="M2.369-18.556v37.112h-4.738v-37.112h4.738z" style="mix-blend-mode:multiply" transform="matrix(3.7 0 0 -3.7 197.767 221.654)"/><path fill="none" stroke="#121330" stroke-linecap="round" stroke-linejoin="round" stroke-width="7.252" d="M189.457 153.374s13.956-.214 23.717-.214c27.232 0 41.418-21.56 61.842-21.56h110.352c8.932 0 16.17 7.285 16.17 16.276 0 0 0 0 0 0 0 8.991-7.238 16.28-16.17 16.28h-4.397 15.461c11.906 0 21.56 9.713 21.56 21.7 0 0 0 0 0 0 0 11.989-9.654 21.705-21.56 21.705h-2.554 13.05c13.006 0 23.543 10.612 23.543 23.702 0 0 0 0 0 0 0 13.09-10.537 23.702-23.543 23.702h-1.561 1.842c12.847 0 23.262 10.486 23.262 23.418 0 0 0 0 0 0 0 12.931-10.415 23.417-23.262 23.417h-62.885c-8.168 0-14.8 6.632-14.8 14.8v62.778c0 17.949-14.548 32.497-32.497 32.497 0 0 0 0 0 0-7.119 0-12.89-5.772-12.89-12.89v-34.063c0-42.49-47.657-73.449-68.65-74.015 0 0 0 0 0 0l-13.295-.131-13.294-.132"/></g><g style="display:block"><path fill="#393346" d="m189.313 310.24-93.06.022-.021-163.773h93.232l-.151 163.75z"/><path fill="#393346" fill-opacity=".5" d="m-16.402-16.281-25.151-.006-.006 44.263h25.198l-.041-44.257z" style="mix-blend-mode:multiply" transform="matrix(1.036 0 0 -3.7 139.137 249.974)"/><path fill="none" stroke="#121330" stroke-linecap="round" stroke-linejoin="round" stroke-width="7.252" d="m189.313 310.24-93.06.022-.021-163.773h93.232l-.151 163.75z"/></g><g class="com" style="display:none"><path/><path/><path/><path/><path/><path/><path/><path/><path/><path/><path/><path/></g></g></svg>